<svg xmlns:xlink="http://www.w3.org/1999/xlink" xmlns="http://www.w3.org/2000/svg" viewBox="0 0 1920 1080" fill="none" data-inject-url="https://nyousefali.com.br/nubank/svg/bg-home.svg" class="svg-bg-home" loading="lazy" >
<g id="bg-home--inject-14" clip-path="url(#clip0--inject-14)" fill="none">
<rect width="1920" height="1080" fill="#EDEAEF"></rect>
<g id="bg-home-blur2--inject-14" class="bg-home-blur2" filter="url(#filter0_f--inject-14)" fill="none">
<rect width="535.102" height="1363.6" rx="55" transform="matrix(0.866025 0.5 -0.866025 0.5 1796.91 0)" fill="url(&quot;#paint0_linear--inject-14&quot;)" fill-opacity="0.3"></rect>
</g>
<g id="bg-home-blur1--inject-14" class="bg-home-blur1" filter="url(#filter1_f--inject-14)" fill="none">
<rect width="535.102" height="1363.6" rx="55" transform="matrix(0.866025 0.5 -0.866025 0.5 690.911 -50)" fill="url(&quot;#paint1_linear--inject-14&quot;)" fill-opacity="0.3"></rect>
</g>
<g id="bg-home-rect2--inject-14" class="bg-home-rect2" filter="url(#filter2_b--inject-14)" fill="none">
<rect width="535.102" height="843.545" rx="55" transform="matrix(0.866025 0.5 -0.866025 0.5 1571.53 -176)" fill="url(&quot;#paint2_linear--inject-14&quot;)"></rect>
</g>
<g id="bg-home-rect1--inject-14" class="bg-home-rect1" filter="url(#filter3_b--inject-14)" fill="none">
<rect width="535.102" height="843.545" rx="55" transform="matrix(0.866025 0.5 -0.866025 0.5 788.531 309)" fill="url(&quot;#paint3_linear--inject-14&quot;)"></rect>
</g>
<g id="bg-home-rect4--inject-14" class="bg-home-rect4" filter="url(#filter4_b--inject-14)" fill="none">
<rect width="535.102" height="843.545" rx="55" transform="matrix(0.866025 0.5 -0.866025 0.5 1844.53 336)" fill="url(&quot;#paint4_linear--inject-14&quot;)"></rect>
</g>
<g id="bg-home-rect3--inject-14" class="bg-home-rect3" filter="url(#filter5_b--inject-14)" fill="none">
<rect width="535.102" height="843.545" rx="55" transform="matrix(0.866025 0.5 -0.866025 0.5 642.531 -237)" fill="url(&quot;#paint5_linear--inject-14&quot;)"></rect>
</g>
<path id="bg-home-letter-u--inject-14" class="bg-home-letter-u" d="M1985 699.703V258.116C1985 236.616 1973.36 230 1956.72 230H1863.57C1843.61 230 1835.29 236.616 1835.29 258.116V876.672C1835.29 891.557 1805.56 945.63 1722.18 939.521C1564.15 927.944 1471 818.703 1471 731.129V258.116C1471 239.923 1479.32 230 1499.28 230H1590.77C1610.73 230 1619.05 239.923 1619.05 258.116V694.744C1619.05 744.226 1668.26 797.285 1722.18 797.285H1888.53C1941.76 797.285 1985 736.089 1985 699.703Z" stroke="url(&quot;#paint6_linear--inject-14&quot;)" stroke-width="2" fill="none"></path>
<path id="bg-home-letter-n--inject-14" class="bg-home-letter-n" d="M841 326.297V767.884C841 789.384 852.598 796 869.168 796H961.958C981.841 796 990.126 789.384 990.126 767.884V149.328C990.126 134.443 1019.74 80.3704 1102.8 86.4789C1260.21 98.0561 1353 207.297 1353 294.871V767.884C1353 786.077 1344.71 796 1324.83 796H1233.7C1213.82 796 1205.53 786.077 1205.53 767.884V331.256C1205.53 281.774 1156.51 228.715 1102.8 228.715H937.093C884.07 228.715 841 289.911 841 326.297Z" stroke="url(&quot;#paint7_linear--inject-14&quot;)" stroke-width="2" fill="none"></path>
</g>
<defs>
<filter id="filter0_f--inject-14" x="393.902" y="-233.891" width="2088.52" height="1417.13" filterUnits="userSpaceOnUse" color-interpolation-filters="sRGB">
<feFlood flood-opacity="0" result="BackgroundImageFix"></feFlood>
<feBlend mode="normal" in="SourceGraphic" in2="BackgroundImageFix" result="shape"></feBlend>
<feGaussianBlur stdDeviation="125" result="effect1_foregroundBlur"></feGaussianBlur>
</filter>
<filter id="filter1_f--inject-14" x="-712.098" y="-283.891" width="2088.52" height="1417.13" filterUnits="userSpaceOnUse" color-interpolation-filters="sRGB">
<feFlood flood-opacity="0" result="BackgroundImageFix"></feFlood>
<feBlend mode="normal" in="SourceGraphic" in2="BackgroundImageFix" result="shape"></feBlend>
<feGaussianBlur stdDeviation="125" result="effect1_foregroundBlur"></feGaussianBlur>
</filter>
<filter id="filter2_b--inject-14" x="850.902" y="-177.891" width="1174.14" height="693.105" filterUnits="userSpaceOnUse" color-interpolation-filters="sRGB">
<feFlood flood-opacity="0" result="BackgroundImageFix"></feFlood>
<feGaussianBlur in="BackgroundImage" stdDeviation="9"></feGaussianBlur>
<feComposite in2="SourceAlpha" operator="in" result="effect1_backgroundBlur"></feComposite>
<feBlend mode="normal" in="SourceGraphic" in2="effect1_backgroundBlur" result="shape"></feBlend>
</filter>
<filter id="filter3_b--inject-14" x="67.9016" y="307.109" width="1174.14" height="693.105" filterUnits="userSpaceOnUse" color-interpolation-filters="sRGB">
<feFlood flood-opacity="0" result="BackgroundImageFix"></feFlood>
<feGaussianBlur in="BackgroundImage" stdDeviation="9"></feGaussianBlur>
<feComposite in2="SourceAlpha" operator="in" result="effect1_backgroundBlur"></feComposite>
<feBlend mode="normal" in="SourceGraphic" in2="effect1_backgroundBlur" result="shape"></feBlend>
</filter>
<filter id="filter4_b--inject-14" x="1123.9" y="334.109" width="1174.14" height="693.105" filterUnits="userSpaceOnUse" color-interpolation-filters="sRGB">
<feFlood flood-opacity="0" result="BackgroundImageFix"></feFlood>
<feGaussianBlur in="BackgroundImage" stdDeviation="9"></feGaussianBlur>
<feComposite in2="SourceAlpha" operator="in" result="effect1_backgroundBlur"></feComposite>
<feBlend mode="normal" in="SourceGraphic" in2="effect1_backgroundBlur" result="shape"></feBlend>
</filter>
<filter id="filter5_b--inject-14" x="-78.0984" y="-238.891" width="1174.14" height="693.105" filterUnits="userSpaceOnUse" color-interpolation-filters="sRGB">
<feFlood flood-opacity="0" result="BackgroundImageFix"></feFlood>
<feGaussianBlur in="BackgroundImage" stdDeviation="9"></feGaussianBlur>
<feComposite in2="SourceAlpha" operator="in" result="effect1_backgroundBlur"></feComposite>
<feBlend mode="normal" in="SourceGraphic" in2="effect1_backgroundBlur" result="shape"></feBlend>
</filter>
<linearGradient id="paint0_linear--inject-14" x1="535.102" y1="0" x2="-392.29" y2="363.927" gradientUnits="userSpaceOnUse">
<stop stop-color="#8429A0"></stop>
<stop offset="1" stop-color="#8429A0" stop-opacity="0"></stop>
</linearGradient>
<linearGradient id="paint1_linear--inject-14" x1="535.102" y1="0" x2="-392.29" y2="363.927" gradientUnits="userSpaceOnUse">
<stop stop-color="#8429A0"></stop>
<stop offset="1" stop-color="#8429A0" stop-opacity="0"></stop>
</linearGradient>
<linearGradient id="paint2_linear--inject-14" x1="267.551" y1="0" x2="267.551" y2="843.545" gradientUnits="userSpaceOnUse">
<stop stop-color="#F6F3F7"></stop>
<stop offset="1" stop-color="#F3F0F5" stop-opacity="0"></stop>
</linearGradient>
<linearGradient id="paint3_linear--inject-14" x1="267.551" y1="0" x2="267.551" y2="843.545" gradientUnits="userSpaceOnUse">
<stop stop-color="#F6F3F7"></stop>
<stop offset="1" stop-color="#F3F0F5" stop-opacity="0"></stop>
</linearGradient>
<linearGradient id="paint4_linear--inject-14" x1="267.551" y1="0" x2="267.551" y2="843.545" gradientUnits="userSpaceOnUse">
<stop stop-color="#F6F3F7"></stop>
<stop offset="1" stop-color="#F3F0F5" stop-opacity="0"></stop>
</linearGradient>
<linearGradient id="paint5_linear--inject-14" x1="267.551" y1="0" x2="267.551" y2="843.545" gradientUnits="userSpaceOnUse">
<stop stop-color="#F6F3F7"></stop>
<stop offset="1" stop-color="#F3F0F5" stop-opacity="0"></stop>
</linearGradient>
<linearGradient id="paint6_linear--inject-14" x1="1728" y1="230" x2="1728" y2="940" gradientUnits="userSpaceOnUse">
<stop stop-color="#82269E" stop-opacity="0.7"></stop>
<stop offset="1" stop-color="#82269E" stop-opacity="0"></stop>
</linearGradient>
<linearGradient id="paint7_linear--inject-14" x1="1097" y1="796" x2="1097" y2="86" gradientUnits="userSpaceOnUse">
<stop stop-color="#82269E" stop-opacity="0.7"></stop>
<stop offset="1" stop-color="#82269E" stop-opacity="0"></stop>
</linearGradient>
<clipPath id="clip0--inject-14">
<rect width="1920" height="1080" fill="white"></rect>
</clipPath>
<linearGradient id="paint0_linear--inject-14" x1="535.102" y1="0" x2="-392.29" y2="363.927" gradientUnits="userSpaceOnUse">
<stop stop-color="#8429A0"></stop>
<stop offset="1" stop-color="#8429A0" stop-opacity="0"></stop>
</linearGradient><linearGradient id="paint1_linear--inject-14" x1="535.102" y1="0" x2="-392.29" y2="363.927" gradientUnits="userSpaceOnUse">
<stop stop-color="#8429A0"></stop>
<stop offset="1" stop-color="#8429A0" stop-opacity="0"></stop>
</linearGradient><linearGradient id="paint2_linear--inject-14" x1="267.551" y1="0" x2="267.551" y2="843.545" gradientUnits="userSpaceOnUse">
<stop stop-color="#F6F3F7"></stop>
<stop offset="1" stop-color="#F3F0F5" stop-opacity="0"></stop>
</linearGradient><linearGradient id="paint3_linear--inject-14" x1="267.551" y1="0" x2="267.551" y2="843.545" gradientUnits="userSpaceOnUse">
<stop stop-color="#F6F3F7"></stop>
<stop offset="1" stop-color="#F3F0F5" stop-opacity="0"></stop>
</linearGradient><linearGradient id="paint4_linear--inject-14" x1="267.551" y1="0" x2="267.551" y2="843.545" gradientUnits="userSpaceOnUse">
<stop stop-color="#F6F3F7"></stop>
<stop offset="1" stop-color="#F3F0F5" stop-opacity="0"></stop>
</linearGradient><linearGradient id="paint5_linear--inject-14" x1="267.551" y1="0" x2="267.551" y2="843.545" gradientUnits="userSpaceOnUse">
<stop stop-color="#F6F3F7"></stop>
<stop offset="1" stop-color="#F3F0F5" stop-opacity="0"></stop>
</linearGradient><linearGradient id="paint6_linear--inject-14" x1="1728" y1="230" x2="1728" y2="940" gradientUnits="userSpaceOnUse">
<stop stop-color="#82269E" stop-opacity="0.7"></stop>
<stop offset="1" stop-color="#82269E" stop-opacity="0"></stop>
</linearGradient><linearGradient id="paint7_linear--inject-14" x1="1097" y1="796" x2="1097" y2="86" gradientUnits="userSpaceOnUse">
<stop stop-color="#82269E" stop-opacity="0.7"></stop>
<stop offset="1" stop-color="#82269E" stop-opacity="0"></stop>
</linearGradient></defs>
</svg>