<svg width="722" height="458" viewBox="0 0 722 458" fill="none" xmlns="http://www.w3.org/2000/svg">
<g clip-path="url(#clip0_1_2)">
<g filter="url(#filter0_i_1_2)">
<path d="M697 0H25C11.1929 0 0 11.1929 0 25V433C0 446.807 11.1929 458 25 458H697C710.807 458 722 446.807 722 433V25C722 11.1929 710.807 0 697 0Z" fill="url(#paint0_linear_1_2)"/>
</g>
<path d="M231.32 364.456C229.816 364.456 228.488 364.208 227.336 363.712C226.2 363.2 225.24 362.52 224.456 361.672C223.688 360.808 223.104 359.84 222.704 358.768C222.32 357.68 222.128 356.552 222.128 355.384V354.856C222.128 353.752 222.32 352.672 222.704 351.616C223.088 350.56 223.648 349.608 224.384 348.76C225.136 347.912 226.056 347.24 227.144 346.744C228.248 346.232 229.512 345.976 230.936 345.976C232.472 345.976 233.832 346.264 235.016 346.84C236.2 347.4 237.152 348.192 237.872 349.216C238.592 350.224 239.016 351.4 239.144 352.744H235.712C235.6 351.992 235.32 351.352 234.872 350.824C234.424 350.28 233.856 349.864 233.168 349.576C232.496 349.288 231.752 349.144 230.936 349.144C230.12 349.144 229.376 349.288 228.704 349.576C228.048 349.864 227.488 350.272 227.024 350.8C226.56 351.328 226.2 351.96 225.944 352.696C225.704 353.432 225.584 354.248 225.584 355.144C225.584 356.12 225.72 356.992 225.992 357.76C226.264 358.528 226.648 359.184 227.144 359.728C227.64 360.256 228.24 360.664 228.944 360.952C229.648 361.224 230.44 361.36 231.32 361.36C232.488 361.36 233.512 361.12 234.392 360.64C235.272 360.144 235.912 359.504 236.312 358.72L235.712 361.48V356.968H238.856V360.856C238.104 361.992 237.08 362.88 235.784 363.52C234.488 364.144 233 364.456 231.32 364.456ZM230.768 357.64V355.096H240.32V357.64H230.768ZM250.353 364.456C248.721 364.456 247.345 364.144 246.225 363.52C245.105 362.896 244.249 362.024 243.657 360.904C243.081 359.768 242.793 358.44 242.793 356.92V346.48H246.201V357.112C246.201 357.944 246.361 358.68 246.681 359.32C247.001 359.944 247.465 360.432 248.073 360.784C248.697 361.12 249.457 361.288 250.353 361.288C251.233 361.288 251.977 361.12 252.585 360.784C253.209 360.432 253.673 359.944 253.977 359.32C254.297 358.696 254.457 357.96 254.457 357.112V346.48H257.865V356.92C257.865 358.44 257.577 359.768 257.001 360.904C256.441 362.024 255.601 362.896 254.481 363.52C253.361 364.144 251.985 364.456 250.353 364.456ZM261.903 364V346.48H265.311V364H261.903ZM269.683 364V346.48H273.091V364H269.683ZM272.611 364V361H280.171V364H272.611ZM294.445 364V346.48H297.853V364H294.445ZM282.949 364V346.48H286.357V364H282.949ZM285.733 356.728V353.728H295.069V356.728H285.733ZM302.168 364V346.48H305.504V364H302.168ZM305.024 364V361.12H312.968V364H305.024ZM305.024 356.536V353.656H312.344V356.536H305.024ZM305.024 349.36V346.48H312.776V349.36H305.024ZM316.465 364V346.36H319.873V364H316.465ZM327.169 364L321.793 356.368H325.609L331.153 364H327.169ZM318.865 358.144V355.384H323.329C323.953 355.384 324.489 355.256 324.937 355C325.401 354.744 325.761 354.384 326.017 353.92C326.273 353.456 326.401 352.928 326.401 352.336C326.401 351.728 326.273 351.192 326.017 350.728C325.761 350.264 325.401 349.904 324.937 349.648C324.489 349.392 323.953 349.264 323.329 349.264H318.865V346.36H322.969C324.377 346.36 325.593 346.568 326.617 346.984C327.657 347.4 328.457 348.032 329.017 348.88C329.577 349.728 329.857 350.792 329.857 352.072V352.456C329.857 353.752 329.569 354.816 328.993 355.648C328.433 356.48 327.641 357.104 326.617 357.52C325.593 357.936 324.377 358.144 322.969 358.144H318.865ZM333.738 364V346.48H338.394L342.786 356.944H343.218L347.586 346.48H352.314V364H348.93V349.048L349.362 349.096L344.634 360.424H341.154L336.402 349.096L336.858 349.048V364H333.738ZM356.637 364V346.48H359.973V364H356.637ZM359.493 364V361.12H367.437V364H359.493ZM359.493 356.536V353.656H366.813V356.536H359.493ZM359.493 349.36V346.48H367.245V349.36H359.493ZM382.089 364.456C380.537 364.456 379.225 364.208 378.153 363.712C377.097 363.216 376.289 362.536 375.729 361.672C375.169 360.792 374.889 359.8 374.889 358.696H378.225C378.225 359.16 378.353 359.616 378.609 360.064C378.865 360.496 379.273 360.848 379.833 361.12C380.409 361.392 381.161 361.528 382.089 361.528C382.921 361.528 383.617 361.408 384.177 361.168C384.737 360.928 385.153 360.616 385.425 360.232C385.697 359.832 385.833 359.384 385.833 358.888C385.833 358.264 385.569 357.768 385.041 357.4C384.513 357.016 383.697 356.776 382.593 356.68L381.057 356.56C379.377 356.416 378.033 355.896 377.025 355C376.033 354.088 375.537 352.888 375.537 351.4C375.537 350.28 375.801 349.32 376.329 348.52C376.857 347.704 377.593 347.08 378.537 346.648C379.497 346.2 380.617 345.976 381.897 345.976C383.225 345.976 384.369 346.208 385.329 346.672C386.289 347.136 387.033 347.792 387.561 348.64C388.089 349.472 388.353 350.456 388.353 351.592H385.017C385.017 351.112 384.897 350.672 384.657 350.272C384.433 349.856 384.089 349.528 383.625 349.288C383.177 349.032 382.601 348.904 381.897 348.904C381.225 348.904 380.665 349.016 380.217 349.24C379.769 349.464 379.433 349.768 379.209 350.152C378.985 350.536 378.873 350.952 378.873 351.4C378.873 351.944 379.073 352.424 379.473 352.84C379.873 353.24 380.505 353.472 381.369 353.536L382.905 353.68C384.153 353.776 385.249 354.04 386.193 354.472C387.137 354.904 387.865 355.488 388.377 356.224C388.905 356.96 389.169 357.848 389.169 358.888C389.169 359.992 388.881 360.968 388.305 361.816C387.729 362.648 386.905 363.296 385.833 363.76C384.777 364.224 383.529 364.456 382.089 364.456ZM392.333 364V346.48H395.741V364H392.333ZM400.113 364V346.48H403.521V364H400.113ZM403.041 364V361H410.601V364H403.041ZM415.651 364L410.059 346.48H413.587L418.219 361.648L417.211 361.168H419.803L418.771 361.648L423.043 346.48H426.451L421.267 364H415.651ZM426.346 364L432.322 346.48H437.89L444.034 364H440.53L435.322 348.808L436.546 349.336H433.546L434.794 348.808L429.754 364H426.346ZM430.522 359.344L431.602 356.464H438.706L439.762 359.344H430.522Z" fill="white"/>
<path fill-rule="evenodd" clip-rule="evenodd" d="M95.3452 319.859C95.3452 319.872 95.3463 319.879 95.3463 319.879C95.3463 319.879 95.3496 319.871 95.354 319.856C95.3731 319.79 95.4331 319.584 95.6221 319.257C95.8687 318.83 96.2717 318.313 96.8653 317.826C98.0224 316.877 99.9786 315.982 103.09 316.211C115.793 317.143 122.736 325.857 122.736 332.161V372.168C122.736 372.581 122.663 372.734 122.642 372.769C122.6 372.794 122.441 372.866 122.028 372.866H114.306C113.893 372.866 113.734 372.794 113.692 372.769C113.671 372.734 113.599 372.581 113.599 372.168V335.238C113.599 332.612 112.315 330.043 110.474 328.159C108.627 326.268 106.04 324.886 103.213 324.886H95.3452V319.859ZM122.647 372.766C122.651 372.762 122.654 372.76 122.654 372.76C122.654 372.76 122.652 372.762 122.647 372.766ZM113.681 372.76C113.681 372.76 113.683 372.762 113.688 372.766C113.683 372.762 113.681 372.76 113.681 372.76ZM103.213 328.245H95.3452V372.168C95.3451 373.221 95.156 374.405 94.2613 375.256C93.3862 376.088 92.2223 376.225 91.2784 376.225H83.4154C82.537 376.225 81.456 376.058 80.5915 375.305C79.6809 374.511 79.3486 373.37 79.3486 372.168V334.819C79.3486 332.736 80.5152 330.295 82.1528 328.43C83.8125 326.54 86.2707 324.886 89.1714 324.886H91.9856V319.851C91.9856 319.113 92.3018 318.288 92.713 317.577C93.1569 316.808 93.8212 315.978 94.7349 315.229C96.5921 313.705 99.4099 312.572 103.336 312.86C117.312 313.886 126.095 323.651 126.095 332.161V372.168C126.095 373.159 125.872 374.257 125.065 375.097C124.246 375.95 123.128 376.225 122.028 376.225H114.306C113.207 376.225 112.088 375.95 111.269 375.097C110.462 374.257 110.239 373.159 110.239 372.168V335.238C110.239 333.679 109.445 331.913 108.071 330.506C106.704 329.107 104.938 328.245 103.213 328.245ZM89.1714 328.245H91.9856V372.168C91.9856 372.506 91.9534 372.704 91.9249 372.808C91.8146 372.837 91.615 372.866 91.2784 372.866H83.4154C82.9884 372.866 82.834 372.791 82.8028 372.774C82.774 372.725 82.7082 372.563 82.7082 372.168V334.819C82.7082 333.824 83.3665 332.139 84.6771 330.647C85.9656 329.179 87.5788 328.245 89.1714 328.245ZM82.8161 372.791C82.8161 372.791 82.8116 372.788 82.8054 372.778C82.8134 372.786 82.8161 372.791 82.8161 372.791ZM163.431 381.121C163.431 381.108 163.43 381.101 163.43 381.101C163.43 381.101 163.427 381.108 163.422 381.124C163.403 381.189 163.343 381.395 163.154 381.723C162.908 382.149 162.505 382.666 161.911 383.153C160.754 384.102 158.798 384.997 155.686 384.769C142.984 383.836 136.041 375.123 136.041 368.819V328.812C136.041 328.399 136.114 328.246 136.135 328.211C136.176 328.186 136.335 328.114 136.748 328.114H144.471C144.884 328.114 145.043 328.186 145.084 328.211C145.105 328.246 145.178 328.399 145.178 328.812V365.741C145.178 368.367 146.461 370.937 148.302 372.821C150.15 374.712 152.737 376.094 155.563 376.094H163.431V381.121ZM136.125 328.218C136.125 328.218 136.128 328.216 136.13 328.214C136.125 328.217 136.123 328.219 136.123 328.219L136.125 328.218ZM145.096 328.219C145.096 328.219 145.093 328.218 145.089 328.214C145.094 328.217 145.096 328.219 145.096 328.219ZM155.563 372.734H163.431V328.812C163.431 327.759 163.621 326.575 164.515 325.724C165.39 324.892 166.554 324.754 167.498 324.754H175.361C176.239 324.754 177.321 324.921 178.185 325.675C179.096 326.469 179.428 327.609 179.428 328.812V366.161C179.428 368.243 178.261 370.685 176.624 372.55C174.964 374.44 172.506 376.094 169.605 376.094H166.791V381.128C166.791 381.867 166.475 382.691 166.064 383.403C165.62 384.172 164.955 385.002 164.042 385.751C162.184 387.274 159.367 388.408 155.44 388.119C141.464 387.093 132.681 377.328 132.681 368.819V328.812C132.681 327.821 132.904 326.723 133.711 325.883C134.53 325.029 135.649 324.754 136.748 324.754H144.471C145.57 324.754 146.689 325.029 147.508 325.883C148.314 326.723 148.537 327.821 148.537 328.812V365.741C148.537 367.3 149.331 369.067 150.705 370.473C152.073 371.873 153.838 372.734 155.563 372.734ZM169.605 372.734H166.791V328.812C166.791 328.473 166.823 328.276 166.852 328.172C166.962 328.143 167.161 328.114 167.498 328.114H175.361C175.788 328.114 175.943 328.188 175.974 328.206C176.003 328.255 176.068 328.416 176.068 328.812V366.161C176.068 367.156 175.41 368.84 174.099 370.333C172.811 371.8 171.198 372.734 169.605 372.734ZM175.963 328.19C175.961 328.189 175.96 328.188 175.96 328.188C175.96 328.188 175.963 328.194 175.971 328.202C175.967 328.196 175.965 328.192 175.963 328.19Z" fill="#FBF8FC"/>
<path d="M581.889 132.248C607.156 132.248 627.64 111.764 627.64 86.4971C627.64 61.2298 607.156 40.7466 581.889 40.7466C556.622 40.7466 536.138 61.2298 536.138 86.4971C536.138 111.764 556.622 132.248 581.889 132.248Z" fill="#E71924"/>
<path d="M637.647 132.248C662.914 132.248 683.398 111.764 683.398 86.4971C683.398 61.2298 662.914 40.7466 637.647 40.7466C612.38 40.7466 591.896 61.2298 591.896 86.4971C591.896 111.764 612.38 132.248 637.647 132.248Z" fill="#F99F19"/>
<path fill-rule="evenodd" clip-rule="evenodd" d="M609.768 122.595C620.636 114.23 627.64 101.092 627.64 86.3172C627.64 71.5427 620.636 58.404 609.768 50.0396C598.9 58.404 591.897 71.5427 591.897 86.3172C591.897 101.092 598.9 114.23 609.768 122.595Z" fill="#F26520"/>
<path d="M172.279 156.195H86.4971C83.1413 156.195 80.4209 158.915 80.4209 162.271V219.459C80.4209 222.815 83.1413 225.536 86.4971 225.536H172.279C175.635 225.536 178.356 222.815 178.356 219.459V162.271C178.356 158.915 175.635 156.195 172.279 156.195Z" fill="url(#paint1_linear_1_2)" stroke="#211F21" stroke-width="2.14455"/>
<path d="M80.7783 178.713H110.087" stroke="#211F21" stroke-width="2" stroke-linecap="round"/>
<path d="M80.7783 200.873H109.445" stroke="#211F21" stroke-width="2" stroke-linecap="round"/>
<path d="M149.404 200.873H177.998" stroke="#211F21" stroke-width="2" stroke-linecap="round"/>
<path d="M148.975 179.428H177.998" stroke="#211F21" stroke-width="2" stroke-linecap="round"/>
<path d="M129.388 168.706C130.572 168.706 131.533 167.745 131.533 166.561C131.533 165.377 130.572 164.416 129.388 164.416C128.204 164.416 127.243 165.377 127.243 166.561C127.243 167.745 128.204 168.706 129.388 168.706Z" fill="#211F21"/>
<path d="M231.053 205.824C236.325 192.59 236.926 185.119 231.053 171.645C230.43 170.215 231.053 169.024 231.768 168.786C232.483 168.547 233.589 168.786 234.27 170.215C241.188 184.73 240.767 192.87 234.627 207.387C233.912 208.817 232.575 208.998 231.768 208.46C230.824 207.831 230.608 206.941 231.053 205.824Z" fill="#FBF8FC"/>
<path d="M223.547 172.717C222.832 173.075 222.375 174.43 223.19 175.934C227.999 185.94 227.801 191.662 223.19 202.026C222.686 203.071 222.998 204.226 223.905 204.528C224.977 204.886 225.913 204.125 226.406 203.098C231.701 192.084 231.84 185.756 226.406 174.147C225.905 173.075 224.619 172.181 223.547 172.717Z" fill="#FBF8FC"/>
<path d="M216.399 177.364C215.326 177.721 215.136 178.908 215.684 180.223C218.53 187.063 218.979 190.898 215.684 197.737C215.041 198.929 214.83 200.193 216.041 200.596C217.252 201 218.126 200.363 218.543 199.524C222.766 191.149 221.82 186.454 218.543 178.079C218.263 177.364 217.471 177.006 216.399 177.364Z" fill="#FBF8FC"/>
<path d="M208.893 180.223C207.82 180.938 207.668 182.022 208.535 183.797C210.344 187.564 210.303 189.68 208.535 193.448C207.713 195.11 207.463 197.022 208.893 197.38C210.322 197.737 210.957 197.229 211.752 195.235C213.578 189.987 213.756 187.02 211.752 181.653C211.291 180.261 210.322 179.508 208.893 180.223Z" fill="#FBF8FC"/>
<path d="M145.115 170.849C142.372 161.508 137.251 156.91 129.03 156.91C119.023 156.91 116.194 164.53 110.087 178.355C113.998 187.507 114.039 192.437 110.087 200.873C116.494 219.254 121.24 224.915 129.388 224.821C140.111 224.821 143.163 215.733 149.046 200.873C145.952 192.497 145.622 187.875 148.5 179.5" stroke="#211F21" stroke-width="2" stroke-linecap="round"/>
</g>
<defs>
<filter id="filter0_i_1_2" x="0" y="0" width="725" height="461" filterUnits="userSpaceOnUse" color-interpolation-filters="sRGB">
<feFlood flood-opacity="0" result="BackgroundImageFix"/>
<feBlend mode="normal" in="SourceGraphic" in2="BackgroundImageFix" result="shape"/>
<feColorMatrix in="SourceAlpha" type="matrix" values="0 0 0 0 0 0 0 0 0 0 0 0 0 0 0 0 0 0 127 0" result="hardAlpha"/>
<feOffset dx="3" dy="3"/>
<feGaussianBlur stdDeviation="3"/>
<feComposite in2="hardAlpha" operator="arithmetic" k2="-1" k3="1"/>
<feColorMatrix type="matrix" values="0 0 0 0 1 0 0 0 0 1 0 0 0 0 1 0 0 0 0.25 0"/>
<feBlend mode="normal" in2="shape" result="effect1_innerShadow_1_2"/>
</filter>
<linearGradient id="paint0_linear_1_2" x1="610.09" y1="61.83" x2="354.096" y2="526.995" gradientUnits="userSpaceOnUse">
<stop stop-color="#A950C4"/>
<stop offset="1" stop-color="#82269E"/>
</linearGradient>
<linearGradient id="paint1_linear_1_2" x1="171" y1="165" x2="87" y2="221" gradientUnits="userSpaceOnUse">
<stop stop-color="#F4F4F4"/>
<stop offset="1" stop-color="#D6D6D6"/>
</linearGradient>
<clipPath id="clip0_1_2">
<rect width="722" height="458" fill="white"/>
</clipPath>
</defs>
</svg>
